<?xml version="1.0" standalone="no"?><!DOCTYPE svg PUBLIC "-//W3C//DTD SVG 1.1//EN" "http://www.w3.org/Graphics/SVG/1.1/DTD/svg11.dtd"><svg t="1626022196590" class="icon" viewBox="0 0 1036 1024" version="1.1" xmlns="http://www.w3.org/2000/svg" p-id="1406" xmlns:xlink="http://www.w3.org/1999/xlink" width="202.34375" height="200"><defs><style type="text/css"></style></defs><path d="M883.0464 0h-716.8c-84.48 0-153.6 69.12-153.6 153.6v716.8c0 84.48 69.12 153.6 153.6 153.6h716.8c84.48 0 153.6-69.12 153.6-153.6V153.6c0-84.48-69.12-153.6-153.6-153.6z m44.8 894.72l-232.32-225.28 85.12-85.12c13.44-13.44 37.76-13.44 51.2 0l102.4 102.4V870.4c0 8.96-2.56 17.28-6.4 24.32zM166.2464 102.4h716.8c28.16 0 51.2 23.04 51.2 51.2v388.48L904.1664 512c-53.76-54.4-142.08-54.4-196.48 0l-86.4 86.4-152.96-147.84c-54.4-54.4-142.08-54.4-195.2-1.28l-158.72 149.12V153.6c0.64-28.16 23.68-51.2 51.84-51.2z m-51.2 768V739.2l230.4-216.32c13.44-13.44 37.12-14.08 51.84 0.64L808.8064 921.6h-642.56c-28.16 0-51.2-22.4-51.2-51.2z m537.6-460.8a76.8 76.8 0 1 1 0-153.6 76.8 76.8 0 0 1 0 153.6z" p-id="1407"></path></svg>